<?xml version="1.0" encoding="iso-8859-1"?>
<!-- Uploaded to: SVG Repo, www.svgrepo.com, Generator: SVG Repo Mixer Tools -->
<svg height="800px" width="800px" version="1.1" id="Layer_1" xmlns="http://www.w3.org/2000/svg" xmlns:xlink="http://www.w3.org/1999/xlink" 
	 viewBox="0 0 512 512" xml:space="preserve">
<polygon style="fill:#FF877F;" points="345.6,243.2 345.6,192 166.4,192 166.4,243.2 192,243.2 192,448 166.4,448 166.4,499.2 
	345.6,499.2 345.6,448 320,448 320,243.2 "/>
<path style="fill:#FF9F99;" d="M192,76.8c0,35.294,28.706,64,64,64s64-28.706,64-64s-28.706-64-64-64S192,41.506,192,76.8z"/>
<g>
	<path style="fill:#573A32;" d="M332.8,76.8C332.8,34.381,298.419,0,256,0s-76.8,34.381-76.8,76.8s34.381,76.8,76.8,76.8
		S332.8,119.219,332.8,76.8z M204.8,76.8c0-28.228,22.972-51.2,51.2-51.2s51.2,22.972,51.2,51.2S284.228,128,256,128
		C227.772,128,204.8,105.028,204.8,76.8z"/>
	<path style="fill:#573A32;" d="M358.4,230.4v-25.6c0-14.14-11.46-25.6-25.6-25.6H179.2c-14.14,0-25.6,11.46-25.6,25.6v25.6
		c0,14.14,11.46,25.6,25.6,25.6v179.2c-14.14,0-25.6,11.46-25.6,25.6v25.6c0,14.14,11.46,25.6,25.6,25.6h153.6
		c14.14,0,25.6-11.46,25.6-25.6v-25.6c0-14.14-11.46-25.6-25.6-25.6V256C346.94,256,358.4,244.54,358.4,230.4z M332.8,460.8v25.6
		H179.2v-25.6h25.6V230.4h-25.6v-25.6h153.6v25.6h-25.6v230.4H332.8z"/>
</g>
</svg>