<?xml version="1.0" encoding="iso-8859-1"?>
<!-- Uploaded to: SVG Repo, www.svgrepo.com, Generator: SVG Repo Mixer Tools -->
<svg fill="#000000" height="800px" width="800px" version="1.1" id="Layer_1" xmlns="http://www.w3.org/2000/svg" xmlns:xlink="http://www.w3.org/1999/xlink" 
	 viewBox="0 0 507.906 507.906" xml:space="preserve">
<g>
	<g>
		<path d="M198.022,365.201v122.564c0,1.764-0.324,3.312,1.372,3.804c0.364,0.108-0.008,0.156,0.364,0.156
			c1.332,0,2.232-0.664,2.976-1.828l71.256-111.584l150.34,50.42c0.412,0.132,0.796,0.204,1.224,0.204
			c0.696,0,1.364-0.18,1.98-0.548c0.98-0.572,1.668-1.556,1.884-2.672l78.488-402.748L198.022,365.201z"/>
	</g>
</g>
<g>
	<g>
		<path d="M2.082,280.197c-1.388,0.752-2.2,2.256-2.068,3.836c0.136,1.564,1.188,2.908,2.688,3.408l185.168,62.072L491.134,16.181
			L2.082,280.197z"/>
	</g>
</g>
</svg>