<svg width="24" height="24" viewBox="0 0 24 24" fill="none" xmlns="http://www.w3.org/2000/svg">
<path d="M23.1955 14.0852L21.0365 16.2422V17.9642C21.0365 19.6182 19.6905 20.9642 18.0365 20.9642H16.3155L14.1575 23.1212C13.5925 23.6872 12.8385 24.0002 12.0365 24.0002C11.2345 24.0002 10.4815 23.6882 9.91545 23.1212L7.75845 20.9642H6.03645C4.38245 20.9642 3.03645 19.6182 3.03645 17.9642V16.2422L0.879453 14.0852C-0.290547 12.9162 -0.290547 11.0122 0.879453 9.84218L3.03645 7.68518V5.96418C3.03645 4.31018 4.38245 2.96418 6.03645 2.96418H7.75845L9.91545 0.80618C11.0495 -0.32882 13.0265 -0.32582 14.1585 0.80618L16.3155 2.96318H18.0365C18.5895 2.96318 19.0365 3.41118 19.0365 3.96318C19.0365 4.51518 18.5895 4.96318 18.0365 4.96318H15.9015C15.6355 4.96318 15.3815 4.85818 15.1945 4.67018L12.7435 2.21918C12.3665 1.84318 11.7095 1.84118 11.3295 2.21918L8.87945 4.67018C8.69145 4.85818 8.43845 4.96318 8.17245 4.96318H6.03645C5.48445 4.96318 5.03645 5.41218 5.03645 5.96318V8.09818C5.03645 8.36318 4.93145 8.61818 4.74345 8.80518L2.29345 11.2552C1.90345 11.6452 1.90345 12.2792 2.29345 12.6702L4.74345 15.1202C4.93145 15.3082 5.03645 15.5612 5.03645 15.8272V17.9632C5.03645 18.5152 5.48445 18.9632 6.03645 18.9632H8.17245C8.43845 18.9632 8.69245 19.0682 8.87945 19.2562L11.3295 21.7062C11.7085 22.0842 12.3665 22.0842 12.7425 21.7062L15.1945 19.2562C15.3825 19.0682 15.6355 18.9632 15.9015 18.9632H18.0365C18.5885 18.9632 19.0365 18.5152 19.0365 17.9632V15.8272C19.0365 15.5612 19.1415 15.3072 19.3295 15.1202L21.7805 12.6702C22.1705 12.2802 22.1705 11.6452 21.7805 11.2552C21.3905 10.8642 21.3905 10.2312 21.7805 9.84118C22.1715 9.45118 22.8045 9.45018 23.1955 9.84118C24.3635 11.0102 24.3635 12.9132 23.1955 14.0832V14.0852ZM10.7215 13.6622L7.70345 10.6742C7.30945 10.2842 6.67845 10.2892 6.28845 10.6812C5.89945 11.0732 5.90345 11.7062 6.29545 12.0952L9.31445 15.0842C9.92845 15.6922 10.7365 15.9972 11.5435 15.9972C12.3505 15.9972 13.1605 15.6902 13.7755 15.0792L22.7055 6.20818C23.0975 5.81918 23.0995 5.18618 22.7095 4.79418C22.3195 4.40218 21.6875 4.39918 21.2955 4.78918L12.3655 13.6612C11.9125 14.1122 11.1755 14.1122 10.7215 13.6622Z" fill="#019869"/>
</svg>
